<?xml version="1.0" encoding="UTF-8"?>
<!DOCTYPE svg PUBLIC "-//W3C//DTD SVG 1.1//EN" "http://www.w3.org/Graphics/SVG/1.1/DTD/svg11.dtd">
<!-- Creator: CorelDRAW -->
<svg xmlns="http://www.w3.org/2000/svg" xml:space="preserve" width="1.44928in" height="1.47431in" version="1.1" style="shape-rendering:geometricPrecision; text-rendering:geometricPrecision; image-rendering:optimizeQuality; fill-rule:evenodd; clip-rule:evenodd"
viewBox="0 0 1449.28 1474.31"
 xmlns:xlink="http://www.w3.org/1999/xlink"
 xmlns:xodm="http://www.corel.com/coreldraw/odm/2003">
 <defs>
  <style type="text/css">
   <![CDATA[
    .fil0 {fill:#4DA2FF}
   ]]>
  </style>
 </defs>
 <g id="Layer_x0020_1">
  <metadata id="CorelCorpID_0Corel-Layer"/>
  <path class="fil0" d="M532.9 607.65l-60.56 -27.13 -40.45 -18.12 -38.03 -17.04 -38.27 -17.14 -52.33 63.98 -1.31 1.66c-74.76,92.8 -119.54,210.73 -119.54,339.12 0,298.96 242.77,541.34 542.2,541.34 299.43,0 542.2,-242.37 542.2,-541.34 0,-126.95 -43.78,-243.68 -117.04,-335.94 -0.44,-0.56 -0.88,-1.12 -1.33,-1.68 -0.39,-0.48 -0.77,-0.96 -1.17,-1.44l-1.31 -1.65 0.06 -0.06 -52.34 -63.99 -38.27 17.14 -37.92 16.99 -38.28 17.15 70.98 86.78 -0.06 0c56.54,70.99 90.34,160.77 90.34,258.43 0,97.65 -34.84,190.17 -92.86,261.56l-5.03 6.17 -1.31 -7.83c-1.14,-6.63 -2.45,-13.36 -4,-20.1 -29.06,-127.7 -123.75,-237.17 -279.6,-325.87 -104.41,-59.25 -164.53,-130.42 -180.93,-211.32l-43.87 -19.66zm337.13 -225.63l37.91 -16.98 38.28 -17.15 -60.01 -73.36 -57.12 -69.84 -57.12 -69.84 -32.31 -39.5c-7.76,-9.48 -22.28,-9.48 -30.04,0l-32.31 39.51 -57.11 69.83 -57.11 69.83 -60.01 73.38 38.28 17.15 42.57 19.07 37.06 16.6c7.59,-13.02 15.3,-24.22 22.51,-33.13l60.66 -74.13c10.62,-13.02 30.56,-13.02 41.17,0l86.45 105.71 38.27 -17.15zm-145.39 267.29l464.33 -208.03 0 139.46 81.36 -73.98 61.1 20.5 0 -149.81 117.84 -52.8 -724.64 -324.65 -724.64 324.65 724.64 324.66zm0 -157.19l-372.2 -167.47 185.21 -82.98 140.63 -171.96c23.92,-29.23 68.99,-28.94 92.69,0l140.66 171.96 185.19 82.97 -372.19 167.47zm-324.1 172.55l36.32 -44.49 1.09 8.22c0.85,6.51 1.94,13.02 3.2,19.59 23.53,123.41 107.54,226.26 247.97,305.94 122.1,69.5 193.2,149.4 213.65,237 8.56,36.55 10.05,72.53 6.34,104l-0.23 1.94 -1.78 0.86c-55.11,26.9 -117.07,42.03 -182.52,42.03 -229.64,0 -415.81,-185.83 -415.81,-415.13 0,-98.46 34.32,-188.86 91.66,-260.08l0.11 0.11z"/>
 </g>
</svg>
